<svg width="129" height="129" viewBox="0 0 129 129" fill="none" xmlns="http://www.w3.org/2000/svg">
<path d="M69.9224 20.8652L51.5424 31.4552L66.1624 40.3752L57.6624 45.3052L48.7824 40.1752V29.1752L28.4324 40.9352L44.6724 50.3152L40.6724 52.6052L21.2724 41.3752V64.8752L27.1224 61.4952L30.8824 63.6552V70.3652L12.8124 80.8052L31.8124 91.8052V85.5752L51.2324 74.3552L46.3224 71.5252L63.8624 61.4052L67.1724 63.3152V40.9752L69.9424 42.6752V64.6752L50.3924 75.9352L65.5424 84.6652L57.5424 89.3052L43.5424 81.2552V103.165L51.1324 98.8052L66.4524 107.645V85.2052L88.6924 98.0452L107.542 86.6252V42.4052L69.9224 20.8652ZM66.2524 41.4052V50.2652L58.5424 45.8052L66.2524 41.4052ZM47.8624 30.8052V51.0952L30.2624 40.9352L47.8624 30.8052ZM22.1824 42.9552L39.7924 53.1252L22.1824 63.2852V42.9552ZM31.7924 84.5152V64.1952L49.4024 74.3552L31.7924 84.5152ZM45.4124 70.9952H45.3424V50.7052L47.8624 52.1652V61.5552L55.9924 56.8652L62.9424 60.8652L45.4124 70.9952ZM56.9124 56.3352L66.2524 50.9352V61.7252L56.9124 56.3352ZM65.5424 106.035L52.0524 98.2552L62.5124 92.2552L58.3924 89.8052L65.5424 85.7052V106.035Z" fill="#53C4FF"/>
<path d="M69.8224 112.435L88.7924 101.475L69.8224 90.5151V112.435Z" fill="#53C4FF"/>
</svg>
